<svg xmlns="http://www.w3.org/2000/svg" viewBox="0 0 48 48" width="24" height="24">
  <g>
    <path fill="#4285F4" d="M44.5 20H24v8.5h11.7C34.4 33.5 29.7 36 24 36c-6.6 0-12-5.4-12-12s5.4-12 12-12c2.8 0 5.4 1 7.5 2.7l6.3-6.3C34.5 6.1 29.5 4 24 4 12.9 4 4 12.9 4 24s8.9 20 20 20c10.7 0 19.7-7.5 19.7-20 0-1.3-.1-2.2-.2-3z"/>
    <path fill="#34A853" d="M6.3 14.1l7 5.1C15.4 16.1 19.3 14 24 14c2.8 0 5.4 1 7.5 2.7l6.3-6.3C34.5 6.1 29.5 4 24 4c-7.2 0-13.2 4.1-16.7 10.1z"/>
    <path fill="#FBBC05" d="M24 44c5.4 0 10.3-1.8 14.1-4.9l-6.5-5.3c-2.1 1.6-5 2.7-7.6 2.7-5.7 0-10.4-3.5-12.1-8.4l-7 5.4C6.8 39.6 14.6 44 24 44z"/>
    <path fill="#EA4335" d="M44.5 20H24v8.5h11.7c-1.2 3.4-4.3 6.5-11.7 6.5-6.6 0-12-5.4-12-12s5.4-12 12-12c2.8 0 5.4 1 7.5 2.7l6.3-6.3C34.5 6.1 29.5 4 24 4c-11.1 0-20 8.9-20 20s8.9 20 20 20c10.7 0 19.7-7.5 19.7-20 0-1.3-.1-2.2-.2-3z"/>
  </g>
</svg>
